<svg width="563" height="475" viewBox="0 0 563 475" fill="none" xmlns="http://www.w3.org/2000/svg">
<path d="M184.819 449.731C182.599 444.103 180.232 437.943 179.751 432.755C179.333 428.285 178.241 424.057 177.192 420.812C177.46 420.455 177.7 420.077 177.909 419.68C181.72 425.688 185.157 429.781 192.277 433.872C196.709 436.423 200.583 437.663 203.288 437.663C205.805 437.663 207.309 436.587 207.307 434.491C207.307 434.293 207.293 434.088 207.265 433.872C207.232 433.608 207.168 433.323 207.079 433.017C206.951 432.591 206.773 432.128 206.551 431.632C203.917 425.759 195.216 415.32 195.407 410.813C195.632 405.652 190.488 393.831 190.488 393.831C192.723 393.384 197.42 380.184 200.331 379.291C203.239 378.395 213.528 365.643 220.909 358.485C227.987 351.624 257.664 329.575 252.441 309.816C252.016 308.209 251.193 306.74 250.104 305.484C246.493 301.324 235.823 290.307 214.423 277.503C197.163 267.176 188.761 263.917 181.464 260.369C182.813 260.005 183.64 259.623 183.777 259.271C183.801 259.208 183.813 259.131 183.812 259.039C183.811 258.752 183.692 258.325 183.481 257.781C181.583 252.879 172.136 238.527 172.609 232.4C173.149 225.38 171.857 200.709 176.529 191.065C181.203 181.421 181.203 181.421 181.203 181.421L194.065 192.495C194.065 192.495 195.629 191.593 197.897 190.009C207.091 195.799 220.156 202.429 224.617 205.108C228.644 207.524 233.697 208.007 237.096 208.007C239.361 208.007 240.892 207.792 240.892 207.792C244.231 206.319 247.509 203.356 250.671 199.403C256.593 191.987 262.085 181.095 266.727 170.052C267.868 167.34 268.955 164.619 269.985 161.941C276.807 144.213 281.116 128.233 281.116 128.233C279.317 126.429 274.668 126.096 271.479 126.096C269.609 126.096 268.24 126.211 268.24 126.211C268.24 126.211 266.897 137.492 256.496 152.928C256.197 153.371 255.899 153.817 255.603 154.263C254.271 156.271 252.969 158.297 251.717 160.296C245.855 169.641 241.016 178.487 238.751 182.736C237.863 184.407 237.368 185.367 237.368 185.367C236.785 184.907 236.191 184.449 235.587 183.997C229.308 179.265 222.177 174.863 216.763 171.723C215.933 171.24 215.144 170.788 214.405 170.369C214.411 170.341 214.417 170.315 214.423 170.288C214.423 170.288 213.195 168.943 212.041 167.645C208.483 163.617 201.757 155.679 197.683 148.812C192.141 139.483 177.217 134.88 164.169 131.004C163.693 130.867 163.217 130.725 162.748 130.584C153.611 127.872 149.192 127.815 139.961 123.387C157.692 115.852 180.58 112.501 205.859 112.501C241.029 112.501 280.813 118.993 317.676 129.736C329.925 133.305 341.981 134.617 353.44 134.617C372.355 134.617 389.643 131.044 403.48 128.16C417.203 125.3 431.173 123.073 444.157 123.073C456.22 123.073 467.429 124.997 476.783 130.127C472.539 131.177 469.037 131.941 467.393 132.069C463.597 132.365 454.467 137.511 448.056 141.395C444.101 143.789 441.181 145.704 441.181 145.704C441.181 145.704 436.908 148.14 430.395 148.14C428.055 148.14 425.424 147.825 422.6 146.971C422.6 146.971 420.277 147.581 416.873 148.579C408.88 150.92 394.928 155.391 391.083 159.081C385.603 164.344 384.945 164.124 380.777 166.097C376.611 168.071 365.427 180.791 356 187.807C352.08 190.727 349.372 192.809 347.547 194.247C344.98 196.269 344.159 197.016 344.159 197.016L345.405 198.908C344.924 199.144 344.427 199.395 343.917 199.66C335.775 203.913 324.64 211.709 324.64 211.709C323.637 211.919 322.579 212.232 321.472 212.629V212.633C307.621 217.643 295.807 229.251 289.288 234.651C284.024 239.007 275.117 247.857 275.117 247.857L280.019 259.403C280.019 259.403 282.357 258.089 286.268 256.333H286.272C286.708 256.137 287.169 255.933 287.649 255.725C291.6 254.015 296.827 252.008 302.713 250.413C309.707 248.516 317.032 244.937 326.519 239.532L326.523 239.529C334.577 234.941 340.869 231.007 340.869 231.007C351.769 226.863 359.364 220.3 359.449 220.225L362.796 225.304C362.796 225.304 364.561 224.468 367.223 223.139C374.755 219.383 389.473 211.709 391.741 207.983C391.741 207.983 391.955 209.183 392.253 211.093C392.948 215.531 394.103 223.789 394.103 229.665C394.103 230.137 394.095 230.593 394.08 231.029C394.032 232.303 393.921 233.419 393.713 234.296C392.181 240.875 389.987 256.663 386.26 261.484C382.531 266.309 378.145 290.651 378.145 290.651C378.145 290.651 375.515 301.835 381.872 313.676C384.517 318.599 386.477 333.848 384.504 336.92C384.504 336.92 381.872 337.137 376.172 339.111C376.172 339.111 373.635 336.976 368.665 336.976C367.267 336.976 365.675 337.144 363.893 337.579C362.631 337.885 361.481 338.573 360.409 339.548C354.655 344.783 351.133 358.293 344.387 365.621C338.273 364.575 332.499 363.827 327.175 363.468C325.652 363.364 324.172 363.315 322.727 363.315C292.723 363.315 278.915 384.956 261.505 406.595C244.92 427.209 225.073 447.823 184.819 449.731M155.632 448.141C67.3672 435.041 68.0495 354.891 91.6013 332.999C113.475 312.668 93.1507 280.081 80.3016 243.089C83.6683 246.273 89.216 248.679 95.8293 250.303C96.6227 262.552 97.0587 272.137 97.5213 272.292C97.5213 272.292 97.5213 296.499 107.085 305.331C116.604 314.12 146.364 345.129 149.508 345.129C149.523 345.129 149.536 345.129 149.549 345.128C149.549 345.128 149.772 349.983 153.352 350.208C153.352 350.208 148.429 370.116 150.441 378.62C150.441 378.62 147.311 385.777 148.879 390.92C150.441 396.069 148.429 401.212 148.429 404.344C148.429 405.463 148.771 407.949 149.608 410.819C149.569 410.919 148.88 412.725 148.355 415.347C148.027 416.98 147.764 418.929 147.764 420.981C147.764 422.937 148.003 424.987 148.653 426.94C150.205 431.597 153.093 440.703 155.632 448.141M509.147 403.404C508.355 403.404 507.548 403.392 506.729 403.371C506.941 401.085 506.987 398.599 506.863 395.907C506.131 379.943 484.024 343.331 473.961 310.219C473.964 310.223 473.964 310.227 473.965 310.228C473.965 310.229 473.967 310.229 473.967 310.229C473.967 310.229 473.968 310.229 473.969 310.228C474.011 310.236 474.34 310.287 474.843 310.287C477.001 310.287 482.349 309.341 481.648 299.86C480.847 289.044 479.131 281.885 479.007 275.379C483.343 273.888 487.244 272.117 490.408 270.105C496.889 319.428 542.076 348.529 537.508 386.111C535.976 398.712 525.292 403.405 509.147 403.404M458.732 379.789C458.732 379.789 439.08 375.507 427.48 375.507C426.987 375.507 426.509 375.513 426.047 375.529C426.047 375.529 419.104 373.976 412.617 372.088C419.855 368.964 426.497 363.888 428.58 357.529C431.627 348.221 430.495 343.091 431.432 339.019C431.432 339.019 438.668 361.04 458.732 379.789M384.913 374.939C383.465 374.551 382.019 374.165 380.583 373.788C382.168 373.875 383.899 373.992 385.691 374.148C385.428 374.408 385.169 374.671 384.913 374.939ZM190.583 350.788C192.388 343.993 193.904 339.736 192.277 335.668C190.488 331.191 174.828 313.044 174.828 313.044L209.725 323.809C209.725 323.809 197.749 340.356 190.583 350.788M470.017 293.625C470.017 293.62 470.015 293.611 470.015 293.607C470.016 293.607 470.019 293.608 470.02 293.608C470.02 293.612 470.019 293.616 470.019 293.62C470.017 293.621 470.017 293.623 470.017 293.625M500.509 205.42C500.036 203.784 499.504 202.685 498.929 202.479C498.104 202.184 497.247 202.061 496.444 202.039C494.704 190.809 492.443 180.125 489.892 172C493.117 168.747 496.865 165.871 500.48 163.668C503.836 177.241 502.961 192.273 500.509 205.42Z" fill="#DAE1D2"/>
<path d="M315.427 87.136H267.057C267.057 87.136 269.549 71.128 276.529 71.128C276.665 71.128 276.804 71.1347 276.943 71.1467C278.961 71.3267 280.335 73.372 281.235 75.5693C281.5 76.216 282.081 76.532 282.66 76.532C283.291 76.532 283.919 76.156 284.129 75.4213C286.059 68.6613 290.007 58.3427 296.124 58.3427C302.451 58.3427 302.66 70.148 302.2 77.3387C302.156 78.028 302.711 78.4747 303.277 78.4747C303.599 78.4747 303.924 78.3307 304.145 78.004C305.616 75.8414 307.68 73.7533 310.176 73.7533C310.513 73.7533 310.859 73.792 311.212 73.8734C316.98 75.2054 315.427 87.136 315.427 87.136" fill="#DAE1D2"/>
<path d="M48.6375 243.6H0.267731C0.267731 243.6 2.76093 227.593 9.73906 227.593C9.87546 227.593 10.0125 227.599 10.1527 227.611C12.1719 227.791 13.5448 229.837 14.4448 232.033C14.7099 232.681 15.2912 232.997 15.8697 232.997C16.5016 232.997 17.1297 232.62 17.3391 231.887C19.2688 225.125 23.2167 214.807 29.3339 214.807C35.6609 214.807 35.8697 226.612 35.4109 233.803C35.3672 234.493 35.9208 234.939 36.4864 234.939C36.8088 234.939 37.1344 234.795 37.3557 234.469C38.8251 232.305 40.8896 230.219 43.3849 230.219C43.7229 230.219 44.0683 230.257 44.4219 230.339C50.1907 231.669 48.6375 243.6 48.6375 243.6" fill="#DAE1D2"/>
<path d="M561.921 177.128H513.552C513.552 177.128 516.045 161.121 523.024 161.121C523.16 161.121 523.297 161.127 523.437 161.14C525.456 161.319 526.829 163.365 527.729 165.561C527.995 166.209 528.576 166.525 529.153 166.525C529.785 166.525 530.413 166.148 530.624 165.413C532.553 158.653 536.501 148.335 542.619 148.335C548.945 148.335 549.155 160.14 548.695 167.331C548.652 168.021 549.205 168.467 549.771 168.467C550.093 168.467 550.419 168.323 550.64 167.997C552.109 165.833 554.175 163.747 556.669 163.747C557.007 163.747 557.352 163.785 557.705 163.867C563.475 165.197 561.921 177.128 561.921 177.128" fill="#DAE1D2"/>
<path d="M359.451 220.224C359.451 220.224 351.832 226.839 340.869 231.007C340.869 231.007 334.577 234.941 326.523 239.529L326.519 239.532C317.032 244.937 309.707 248.516 302.713 250.413C296.827 252.008 291.6 254.015 287.649 255.725C287.169 255.933 286.708 256.137 286.272 256.333H286.268C282.357 258.089 280.019 259.403 280.019 259.403L275.117 247.857C275.117 247.857 284.024 239.007 289.288 234.651C295.807 229.251 307.621 217.643 321.472 212.633V212.629C322.579 212.232 323.637 211.919 324.64 211.709C324.64 211.709 335.775 203.913 343.917 199.66C346.619 198.252 348.987 197.233 350.517 197.016C350.517 197.016 363.559 209.005 359.451 220.224" fill="#F39C72"/>
<path d="M328.807 218.287C328.807 218.287 324.169 213.143 321.472 212.633V212.629C322.579 212.232 323.637 211.919 324.64 211.709C324.64 211.709 328.396 215.492 328.807 218.287" fill="#EC7857"/>
<path d="M359.451 220.224C359.451 220.224 351.832 226.839 340.869 231.007C340.869 231.007 334.577 234.941 326.523 239.529C332.127 235.556 340.977 227.06 347.776 221.248C352.417 217.279 349.855 212.211 347.969 207.468C347.184 205.493 345.144 202.06 344.184 199.817L343.917 199.66C346.619 198.252 348.987 197.233 350.517 197.016C350.517 197.016 363.559 209.005 359.451 220.224Z" fill="#EC7857"/>
<path d="M285.801 251.952L287.285 265.849C287.443 267.319 286.889 268.777 285.797 269.776L277.688 277.183C276.723 278.065 275.223 277.996 274.343 277.028C273.605 276.217 273.52 275.007 274.139 274.101L280.159 265.283L279.116 262.616L275.601 267.969L272.775 273.235L271.34 281.432C271.131 282.625 269.968 283.401 268.787 283.136C267.756 282.904 267.053 281.948 267.139 280.896L267.943 271.053L269.125 263.897L266.22 271.275L263.036 283.361C262.827 284.16 262.151 284.752 261.331 284.859C260.067 285.021 258.968 283.993 259.044 282.723L259.673 272.115L261.847 264.481L255.505 275.1L252.061 282.589C251.681 283.417 250.751 283.837 249.877 283.577C248.908 283.287 248.36 282.265 248.652 281.297L251.317 272.485L255.812 263.856L251.441 270.719L250.261 273.413C250.016 273.973 249.361 274.231 248.8 273.984C248.312 273.771 248.045 273.243 248.161 272.724L248.852 269.651L251.891 263.307L275.239 247.823C275.239 247.823 279.149 246.503 285.801 251.952" fill="#F39C72"/>
<path d="M287.389 255.839C286.909 256.045 286.708 256.137 286.272 256.333H286.268C286.268 256.333 285.911 254.496 283.06 252.139C283.201 252.185 285.335 252.852 287.389 255.839" fill="#EC7857"/>
<path d="M502.219 228.208C501.736 229.155 500.696 229.787 499.575 230.208C500.499 244.368 500.167 256.519 498.039 262.001C491.48 278.885 435.648 287.139 422.225 274.879C408.805 262.62 401.496 181.688 419.587 168.919C433.092 159.384 461.432 157.832 474.928 157.657C480.577 157.585 485.72 160.952 487.836 166.189C491.224 174.577 494.249 187.875 496.444 202.039C497.247 202.061 498.104 202.184 498.929 202.479C501.727 203.485 503.535 225.632 502.219 228.208" fill="#2F2A42"/>
<path d="M399.752 395.253C400.236 397.231 401.141 399.213 402.595 401.147C402.595 401.147 396.683 403.536 391.196 405.775C387.019 407.479 380.176 408.496 375.744 410.187C374.64 410.609 373.687 411.076 372.959 411.603C372.771 411.737 372.599 411.877 372.445 412.023C369.995 414.304 357.153 419.68 353.1 420.645C352.691 420.744 352.372 420.797 352.16 420.797C350.949 420.797 349.248 420.273 348.215 418.616V418.613C347.288 417.123 346.899 414.724 347.885 410.972C348.839 407.337 351.913 402.949 354.956 399.264C358.667 394.775 363.149 390.992 368.184 388.06C372.905 385.311 378.851 381.721 380.012 380.447C383.716 376.372 387.029 371.675 392.291 369.591C393.595 369.077 395.309 368.919 397.148 368.983C402.725 369.168 409.461 371.325 409.461 371.325C409.461 371.325 396.791 383.2 399.752 395.253" fill="#A3A2C0"/>
<path d="M397.148 368.984C394.599 370.829 390.549 374.056 388.885 376.993C386.369 381.433 376.501 386.037 372.225 388.835C367.949 391.631 351.473 404.515 349.859 411.585C348.455 417.727 351.276 420.065 353.099 420.647C352.691 420.744 352.371 420.796 352.161 420.796C349.859 420.796 345.804 418.908 347.885 410.972C348.839 407.336 351.912 402.948 354.957 399.264C358.668 394.775 363.149 390.992 368.184 388.061C372.904 385.311 378.851 381.72 380.011 380.447C383.715 376.371 387.028 371.675 392.291 369.592C393.595 369.076 395.309 368.92 397.148 368.984" fill="#2F2A42"/>
<path d="M352.16 420.797C350.949 420.797 349.248 420.273 348.215 418.616V418.613C349.247 420.271 350.948 420.796 352.161 420.796C352.305 420.796 352.5 420.771 352.741 420.724C352.5 420.772 352.305 420.797 352.16 420.797M353.097 420.647C352.168 420.349 350.98 419.596 350.224 418.116C352.981 417.387 357.941 415.9 360.965 413.963C363.777 412.156 367.616 409.237 371.307 407.271C370.479 405.66 369.244 403.613 367.405 401.149C367.528 401.237 370.452 403.363 373.073 406.405C374.481 405.781 375.837 405.352 377.073 405.237C380.739 404.903 391.108 401.592 397.084 397.472C398.735 399.407 400.203 400.511 400.203 400.511C400.203 400.511 400.463 401.04 401.748 401.489C399.923 402.228 395.432 404.047 391.196 405.775C387.019 407.479 380.176 408.496 375.744 410.187C374.64 410.609 373.687 411.076 372.959 411.603C372.771 411.737 372.599 411.877 372.445 412.023C369.995 414.304 357.153 419.68 353.1 420.645C353.099 420.647 353.099 420.647 353.097 420.647" fill="#878BA8"/>
<path d="M352.161 420.796C350.948 420.796 349.247 420.271 348.215 418.613C348.223 418.612 349.011 418.437 350.224 418.116C350.98 419.596 352.168 420.349 353.097 420.647C352.969 420.677 352.851 420.703 352.741 420.724C352.5 420.771 352.305 420.796 352.161 420.796" fill="#2F2A42"/>
<path d="M370.975 356.859C370.86 363.443 372.247 368.856 372.005 371.128C371.569 375.296 364.552 383.628 364.552 383.628C364.023 388.389 360.235 395.124 355.188 398.695V398.696L355.117 398.744L354.952 398.856C352.009 400.868 348.66 401.799 345.281 400.643C344.905 400.516 344.532 400.364 344.157 400.184C337.697 397.073 335.692 374.785 344.157 365.865C352.325 357.259 355.777 339.552 363.895 337.579C372.005 335.605 376.173 339.112 376.173 339.112C375.959 339.431 375.753 339.752 375.563 340.076C372.083 345.759 371.067 351.672 370.975 356.859" fill="#A3A2C0"/>
<path d="M376.172 339.111C375.959 339.429 375.755 339.752 375.561 340.075C374.792 339.792 367.093 337.081 362.359 340.097C357.368 343.275 354.572 355.34 351.941 358.629C349.309 361.917 341.085 373.976 340.869 378.695C340.648 383.408 339.553 395.028 344.047 398.428C348.291 401.636 353.427 399.809 354.953 398.857C351.685 401.093 347.912 401.988 344.159 400.183C337.697 397.075 335.692 374.787 344.159 365.865C352.325 357.257 355.78 339.552 363.893 337.579C372.005 335.604 376.172 339.111 376.172 339.111" fill="#2F2A42"/>
<path d="M359.771 394.22C362.412 390.823 364.2 386.789 364.552 383.628C364.2 386.789 362.412 390.823 359.771 394.22Z" fill="#C5CAC1"/>
<path d="M367.487 379.829C368.607 378.273 369.829 376.436 370.723 374.713C369.829 376.436 368.608 378.273 367.487 379.829ZM370.724 374.709C370.729 374.7 370.733 374.691 370.739 374.681C370.733 374.691 370.729 374.7 370.724 374.709ZM370.741 374.677C370.745 374.669 370.749 374.661 370.753 374.653C370.749 374.661 370.745 374.669 370.741 374.677ZM370.757 374.645C370.76 374.64 370.763 374.636 370.764 374.632C370.763 374.636 370.76 374.641 370.757 374.645ZM370.775 374.612C370.776 374.609 370.777 374.607 370.779 374.603C370.777 374.607 370.776 374.609 370.775 374.612ZM370.791 374.58C370.792 374.579 370.792 374.577 370.793 374.575C370.792 374.577 370.792 374.579 370.791 374.58ZM370.805 374.551C370.807 374.549 370.808 374.547 370.808 374.545C370.808 374.548 370.807 374.549 370.805 374.551Z" fill="#C5CAC1"/>
<path d="M348.288 401.147C347.333 401.147 346.367 401 345.396 400.681C346.367 401 347.333 401.147 348.289 401.147C348.499 401.147 348.708 401.14 348.916 401.125C348.707 401.14 348.497 401.147 348.288 401.147M345.38 400.676C345.377 400.676 345.375 400.675 345.372 400.673C345.375 400.675 345.377 400.676 345.38 400.676ZM349.585 400.244C348.851 400.244 348.084 400.165 347.311 399.979C353.057 398.799 358.003 390.835 359.092 386.472C359.417 385.175 360.435 383.54 361.72 381.812C359.757 380.681 357.143 379.436 355.117 379.407C355.117 379.407 355.693 379.197 356.801 379.197C358.068 379.197 360.028 379.469 362.62 380.635C364.532 378.205 366.775 375.697 368.235 373.74C368.668 373.768 369.096 373.781 369.519 373.781C370.097 373.781 370.663 373.756 371.209 373.711C371.085 373.984 370.952 374.264 370.808 374.545C370.808 374.547 370.807 374.549 370.805 374.551C370.801 374.559 370.797 374.567 370.793 374.575C370.792 374.577 370.792 374.579 370.791 374.58C370.787 374.588 370.783 374.596 370.779 374.603C370.777 374.607 370.776 374.609 370.775 374.612C370.771 374.619 370.768 374.625 370.764 374.632C370.763 374.636 370.76 374.64 370.757 374.645C370.756 374.648 370.755 374.651 370.753 374.653C370.749 374.661 370.745 374.669 370.741 374.677C370.74 374.679 370.74 374.68 370.739 374.681C370.733 374.691 370.729 374.7 370.724 374.709C370.724 374.711 370.723 374.712 370.723 374.713C369.829 376.436 368.607 378.273 367.487 379.829C366.197 381.617 365.043 383.035 364.673 383.479L364.596 383.575L364.552 383.628C364.2 386.789 362.412 390.823 359.771 394.22C359.771 394.221 359.769 394.221 359.769 394.223C358.62 395.701 357.309 397.06 355.885 398.175C355.884 398.176 355.883 398.176 355.881 398.177C355.652 398.356 355.421 398.528 355.188 398.695V398.696L355.117 398.744L354.952 398.856C354.941 398.863 354.929 398.871 354.919 398.879C354.02 399.427 351.967 400.244 349.585 400.244" fill="#878BA8"/>
<path d="M348.289 401.147C347.333 401.147 346.367 401 345.396 400.681C345.391 400.68 345.385 400.679 345.38 400.676C345.377 400.676 345.375 400.675 345.372 400.673C345.343 400.664 345.312 400.653 345.281 400.643C345.808 400.379 346.473 400.149 347.308 399.979C347.309 399.979 347.311 399.979 347.311 399.979C348.084 400.165 348.851 400.244 349.585 400.244C351.967 400.244 354.02 399.427 354.919 398.879C353.048 400.151 351.016 400.985 348.916 401.125C348.708 401.14 348.499 401.147 348.289 401.147" fill="#2F2A42"/>
<path d="M539.319 128.327L522.872 137.491L506.261 146.747C506.261 146.747 499.575 131.616 505.548 122.241C505.548 122.241 506.943 121.425 508.981 120.353C510.475 119.568 512.317 118.647 514.208 117.805C515.288 117.324 516.387 116.871 517.445 116.485C517.445 116.485 519.089 111.023 521.885 104.871C523.369 101.611 523.557 99.3853 523.405 98.016C523.271 96.8027 522.872 96.256 522.872 96.256C522.872 96.256 531.424 91.944 536.359 87.7667C536.359 87.7667 546.884 111.88 539.319 128.327" fill="#F39C72"/>
<path d="M525.833 123.12C525.833 123.12 518.781 124.883 514.208 117.805C515.288 117.324 516.387 116.871 517.445 116.485C517.445 116.485 520.679 122.241 525.833 123.12Z" fill="#EC7857"/>
<path d="M522.872 137.491L506.261 146.747C506.261 146.747 499.575 131.616 505.548 122.241C505.548 122.241 506.943 121.425 508.981 120.353C508.981 120.353 509.167 133.215 510.923 136.389C512.676 139.567 518.596 138.487 522.872 137.491" fill="#EC7857"/>
<path d="M536.359 87.7667C534.385 89.9681 525.728 96.1587 524.459 96.7627C524.015 96.9734 523.403 96.7041 522.797 96.2627C522.208 96.2934 518.337 96.4507 516.212 95.4907C515.044 94.9614 515.06 93.3094 515.363 91.5601C512.557 90.8827 507.091 86.6001 507.167 82.5241C507.249 78.0841 512.019 77.7547 512.019 77.7547C512.1 72.656 516.952 73.4787 516.952 73.4787C517.197 71.2587 521.228 70.2721 521.228 70.2721C521.639 68.3801 524.271 68.0521 525.833 68.7921C527.395 69.5321 536.688 80.3041 537.099 82.2774C537.509 84.2507 536.359 87.7667 536.359 87.7667" fill="#F39C72"/>
<path d="M522.56 89.1027C523.235 91.652 521.089 91.98 521.089 91.98C521.524 91.648 521.491 90.56 521.369 89.6227C521.369 89.6227 521.353 88.984 521.116 88.2214L521.113 88.2147C520.853 87.3827 520.323 86.4027 519.253 85.9214C517.331 85.0627 516.459 85.6494 516.459 85.6494L512.637 80.468C514.609 81.6587 517.241 84.4987 517.241 84.4987C520.639 84.36 521.909 86.8627 522.349 88.2347C523.017 88.1814 523.757 87.892 524.024 86.9654C524.557 85.112 523.327 83.3267 523.327 83.3267L518.021 76.2747C518.021 76.2747 525.257 83.0174 525.421 85.6494C525.639 89.1414 522.56 89.1027 522.56 89.1027" fill="#EC7857"/>
<path d="M523.324 74.0546C523.324 74.0546 528.057 79.7053 528.685 81.2493C529.368 82.936 528.3 84.6213 527.067 84.9493C525.833 85.2787 525.131 84.6493 525.131 84.6493L525.135 86.4306C525.135 86.4306 529.917 87.1693 529.868 82.6306C529.845 80.3613 523.324 74.0546 523.324 74.0546" fill="#EC7857"/>
<path d="M529.567 81.5827C529.567 81.5827 530.725 82.6894 532.124 82.2361C533.521 81.7841 533.808 80.8387 533.48 79.9747C533.48 79.9747 534.329 80.8107 533.604 82.0307C532.657 83.62 530.307 83.3347 529.567 83.1401V81.5827" fill="#EC7857"/>
<path d="M528.685 95.4907C528.685 95.4907 527.228 98.3001 523.405 98.0161C523.271 96.8027 522.872 96.256 522.872 96.256C522.872 96.256 525.997 96.4774 528.685 95.4907" fill="#EC7857"/>
<path d="M473.967 310.229C473.967 310.229 469.135 299.632 470.019 293.62C470.903 287.608 479.043 297.065 480.112 299.613C481.181 302.163 479.66 309.167 473.967 310.229" fill="#5A8A3B"/>
<path d="M412.617 372.088C407.828 374.157 402.783 375.371 398.632 375.529C403.016 372.315 408.187 371.129 408.187 371.129C409.572 371.296 411.081 371.641 412.617 372.088Z" fill="#2F2A42"/>
<path d="M426.047 375.529C426.047 375.529 419.104 373.976 412.617 372.088C419.855 368.964 426.497 363.888 428.58 357.529C431.627 348.221 430.495 343.091 431.432 339.019C431.432 339.019 438.668 361.04 458.732 379.789C458.732 379.789 437.372 375.135 426.047 375.529ZM506.863 395.907C505.988 376.828 474.583 328.256 469.695 291.417L450.016 284.319C447.404 283.565 448.545 284 445.468 283.085C445.468 283.085 398.976 259.075 378.145 290.651C378.145 290.651 375.515 301.835 381.872 313.676C384.517 318.599 386.477 333.848 384.504 336.92C384.504 336.92 381.872 337.137 376.172 339.111C372.679 340.32 367.289 342.519 363.64 344.039C359.044 345.955 355.519 349.868 354.299 354.696C353.668 357.187 353.587 360.081 354.684 363.235C358.191 373.319 366.963 374.417 372.663 373.539C372.663 373.539 384.945 373.539 394.592 375.293C395.789 375.509 397.155 375.585 398.632 375.529C395.964 377.487 393.585 380.193 392.839 383.845C390.865 393.495 400.203 400.511 400.203 400.511C400.203 400.511 401.171 402.484 408.628 402.047C416.081 401.607 416.061 399.613 422.221 402.109C428.383 404.607 471.56 422.44 485.812 423.097C500.068 423.756 507.743 414.984 506.863 395.907" fill="#2F2A42"/>
<path d="M377.847 343.643C377.177 343.783 376.497 343.924 375.813 344.069L376.023 345.055C376.704 344.911 377.383 344.768 378.052 344.629C378.737 344.485 379.412 344.347 380.072 344.205L379.863 343.22C379.204 343.361 378.529 343.501 377.847 343.643Z" fill="#52526B"/>
<path d="M357.28 350.685L357.771 351.564C358.96 350.9 360.18 350.241 361.395 349.605L360.928 348.713C359.704 349.353 358.476 350.016 357.28 350.685" fill="#52526B"/>
<path d="M369.409 345.556L369.665 346.529C370.845 346.219 372.153 345.903 373.669 345.565L373.449 344.583C371.921 344.923 370.6 345.243 369.409 345.556Z" fill="#52526B"/>
<path d="M390.911 329.264L391.916 329.207C391.837 327.832 391.704 326.435 391.523 325.055L390.524 325.187C390.703 326.541 390.833 327.915 390.911 329.264" fill="#52526B"/>
<path d="M382.639 287.639L381.633 287.572C381.54 288.972 381.483 290.369 381.465 291.727L382.472 291.741C382.489 290.401 382.547 289.021 382.639 287.639Z" fill="#52526B"/>
<path d="M390.157 322.825L391.148 322.648C390.896 321.231 390.589 319.86 390.24 318.571L389.268 318.835C389.611 320.095 389.911 321.437 390.157 322.825" fill="#52526B"/>
<path d="M363.128 347.639L363.528 348.564C364.639 348.083 365.893 347.631 367.363 347.183L367.071 346.219C365.563 346.679 364.273 347.143 363.128 347.639" fill="#52526B"/>
<path d="M389.753 339.84C389.508 340.176 389.039 340.513 388.36 340.844L388.801 341.749C389.64 341.34 390.217 340.911 390.567 340.435C390.916 339.96 391.207 339.231 391.435 338.267L390.455 338.036C390.209 339.071 389.939 339.588 389.753 339.84Z" fill="#52526B"/>
<path d="M389.525 316.233C389.032 314.804 388.476 313.501 387.871 312.363L386.981 312.836C387.563 313.928 388.097 315.181 388.572 316.56L389.525 316.233Z" fill="#52526B"/>
<path d="M382.476 294.135L381.471 294.153C381.499 295.604 381.573 297.005 381.693 298.317L382.695 298.225C382.579 296.937 382.504 295.561 382.476 294.135" fill="#52526B"/>
<path d="M391.999 331.64L390.992 331.651C390.993 331.803 390.993 331.951 390.993 332.1C390.993 333.415 390.937 334.632 390.825 335.721L391.827 335.824C391.941 334.7 392 333.448 392 332.1C392.001 331.949 392 331.796 391.999 331.64" fill="#52526B"/>
<path d="M383.801 304.573C383.463 303.371 383.184 302.032 382.973 300.592L381.977 300.739C382.195 302.22 382.481 303.603 382.832 304.847L383.801 304.573" fill="#52526B"/>
<path d="M384.559 306.801L383.627 307.181C384.157 308.481 384.792 309.612 385.513 310.537L385.749 310.852L386.561 310.256L386.307 309.919C385.643 309.067 385.055 308.017 384.559 306.801" fill="#52526B"/>
<path d="M382.213 342.708L382.436 343.691C384.127 343.305 385.411 342.971 386.477 342.637L386.177 341.676C385.136 342.001 383.876 342.329 382.213 342.708" fill="#52526B"/>
<path d="M434.24 336.953C433.532 335.876 433.137 335.265 433.137 335.265L433.981 334.719C433.981 334.719 434.376 335.327 435.081 336.4L434.24 336.953Z" fill="#52526B"/>
<path d="M415.12 376.707C416.185 376.963 417.453 377.287 418.997 377.696L419.256 376.724C417.704 376.311 416.428 375.985 415.355 375.728L415.12 376.707" fill="#52526B"/>
<path d="M409.029 374.773L408.903 375.772C409.917 375.903 410.828 375.989 411.609 376.032C411.891 376.047 412.309 376.107 412.856 376.209L413.043 375.221C412.445 375.108 411.993 375.044 411.664 375.028C410.908 374.985 410.021 374.9 409.029 374.773" fill="#52526B"/>
<path d="M421.255 378.305C422.476 378.639 423.771 378.996 425.119 379.371L425.388 378.401C424.04 378.027 422.744 377.667 421.52 377.333L421.255 378.305Z" fill="#52526B"/>
<path d="M427.371 380.001L431.233 381.084L431.505 380.115L427.643 379.031L427.371 380.001" fill="#52526B"/>
<path d="M433.485 381.715C434.771 382.075 436.064 382.435 437.352 382.791L437.62 381.82C436.333 381.465 435.04 381.104 433.756 380.747L433.485 381.715Z" fill="#52526B"/>
<path d="M449.348 357.372C448.573 356.279 447.804 355.183 447.044 354.095L446.219 354.672C446.977 355.76 447.749 356.859 448.525 357.955L449.348 357.372Z" fill="#52526B"/>
<path d="M468.792 382.524C468.516 381.452 467.821 380.268 466.673 378.905L465.904 379.553C466.939 380.781 467.583 381.865 467.816 382.775L468.792 382.524" fill="#52526B"/>
<path d="M453.047 362.521C452.268 361.456 451.484 360.371 450.701 359.277L449.884 359.863C450.668 360.96 451.453 362.047 452.235 363.115L453.047 362.521" fill="#52526B"/>
<path d="M402.685 374.361L402.616 374.708C404.023 374.989 405.353 375.233 406.575 375.431L406.735 374.437C406.148 374.343 405.532 374.236 404.896 374.119C404.16 374.212 403.423 374.293 402.685 374.361" fill="#52526B"/>
<path d="M435.525 338.903C436.163 339.867 436.911 340.993 437.747 342.245L438.584 341.685C437.749 340.436 437.001 339.311 436.364 338.348L435.525 338.903Z" fill="#52526B"/>
<path d="M459.717 386.836C459.36 386.847 458.9 386.823 458.34 386.763L458.231 387.763C458.736 387.817 459.175 387.847 459.535 387.847L459.751 387.843C460.685 387.811 461.556 387.751 462.339 387.665L462.228 386.664C461.471 386.749 460.625 386.805 459.717 386.836" fill="#52526B"/>
<path d="M464.553 376.685C463.897 376.061 463.136 375.263 462.289 374.308L461.535 374.976C462.401 375.952 463.184 376.772 463.861 377.415C464.028 377.573 464.188 377.728 464.344 377.881L465.049 377.164C464.891 377.007 464.725 376.847 464.553 376.685Z" fill="#52526B"/>
<path d="M460.773 372.547C459.999 371.619 459.153 370.573 458.264 369.44L457.472 370.063C458.368 371.203 459.219 372.255 460.001 373.192L460.773 372.547" fill="#52526B"/>
<path d="M453.621 365.001C454.459 366.129 455.271 367.208 456.036 368.209L456.836 367.596C456.073 366.6 455.264 365.527 454.429 364.401L453.621 365.001Z" fill="#52526B"/>
<path d="M464.469 386.289L464.703 387.268C466.572 386.82 467.791 386.133 468.432 385.167L467.593 384.611C467.107 385.344 466.055 385.909 464.469 386.289" fill="#52526B"/>
<path d="M439.608 383.413C440.919 383.771 442.216 384.123 443.483 384.459L443.743 383.485C442.476 383.149 441.183 382.8 439.873 382.441L439.608 383.413Z" fill="#52526B"/>
<path d="M451.929 386.581C453.437 386.927 454.767 387.205 455.88 387.408L456.06 386.417C454.963 386.217 453.647 385.943 452.155 385.6L451.929 386.581" fill="#52526B"/>
<path d="M442.611 349.445C443.348 350.523 444.107 351.628 444.883 352.751L445.711 352.177C444.936 351.056 444.177 349.953 443.441 348.877L442.611 349.445Z" fill="#52526B"/>
<path d="M442.127 346.947C441.34 345.789 440.589 344.677 439.884 343.628L439.048 344.189C439.755 345.24 440.507 346.353 441.293 347.512L442.127 346.947Z" fill="#52526B"/>
<path d="M445.751 385.055C447.148 385.417 448.459 385.751 449.645 386.039L449.884 385.061C448.701 384.772 447.397 384.443 446.003 384.081L445.751 385.055" fill="#52526B"/>
<path d="M412.617 372.088C407.828 374.157 402.783 375.371 398.632 375.529C403.016 372.315 408.187 371.129 408.187 371.129C409.572 371.296 411.081 371.641 412.617 372.088Z" fill="#2F2A42"/>
<path d="M507.925 149.213C507.857 155.561 507.523 160.176 507.523 160.176C506.344 160.608 505.087 161.16 503.779 161.824C495.101 166.223 484.323 175.396 481.701 184.737C480.659 188.453 480.175 196.131 479.987 204.811C479.833 211.828 479.875 219.497 479.972 226.264C479.977 226.629 479.98 226.995 479.987 227.352C480.123 235.921 480.333 242.852 480.333 244.821C480.333 250.301 479.235 266.531 479.017 273.547C478.797 280.563 480.771 288.02 481.648 299.86C482.524 311.701 473.965 310.228 473.965 310.228C482.3 306.721 477.98 296.743 472.656 294.597C471.863 294.279 470.945 293.933 469.915 293.572L469.913 293.568C457.184 289.063 427.663 281.457 412.617 279.248C390.208 275.957 378.145 290.651 378.145 290.651C378.145 290.651 382.531 266.309 386.26 261.484C389.987 256.663 392.181 240.875 393.713 234.296C393.921 233.419 394.032 232.303 394.08 231.029C394.291 225.139 393.004 215.887 392.253 211.093C391.955 209.183 391.741 207.983 391.741 207.983C389.473 211.709 374.755 219.383 367.223 223.139C364.561 224.468 362.796 225.304 362.796 225.304L356.549 215.824L344.159 197.016C344.159 197.016 344.98 196.269 347.547 194.247C349.372 192.809 352.08 190.727 356 187.807C365.427 180.791 376.611 168.071 380.777 166.097C384.945 164.124 385.603 164.344 391.083 159.081C394.928 155.391 408.88 150.92 416.873 148.579C420.277 147.581 422.6 146.971 422.6 146.971C433.284 150.207 441.181 145.704 441.181 145.704C441.181 145.704 444.101 143.789 448.056 141.395C454.467 137.511 463.597 132.365 467.393 132.069C472.201 131.695 492.884 125.88 501.624 123.373C504.044 122.683 505.548 122.241 505.548 122.241C507.647 130.015 508.009 141.047 507.925 149.213" fill="#87C72F"/>
<path d="M431.253 157C421.799 157.472 417.781 150.464 416.873 148.579C420.277 147.583 422.6 146.971 422.6 146.971C433.284 150.207 441.181 145.704 441.181 145.704C441.181 145.704 444.101 143.789 448.056 141.395C449.2 151.045 441.912 156.463 431.253 157Z" fill="#2F2A42"/>
<path d="M367.223 223.139C364.561 224.468 362.796 225.304 362.796 225.304L344.159 197.016C344.159 197.016 344.98 196.269 347.547 194.247L367.223 223.139Z" fill="#2F2A42"/>
<path d="M507.523 160.176C506.344 160.608 505.087 161.16 503.779 161.824C505.413 145.911 502.873 129.876 501.624 123.373C504.044 122.683 505.548 122.241 505.548 122.241C509.279 136.056 507.523 160.176 507.523 160.176" fill="#2F2A42"/>
<path d="M479.972 226.264C464.604 219.537 427.145 207.476 394.08 231.029C394.291 225.139 393.004 215.887 392.253 211.093C397.269 207.923 421.34 193.539 444.368 194.247C460.223 194.733 472.697 200.453 479.987 204.811C479.833 211.828 479.875 219.497 479.972 226.264Z" fill="#96D330"/>
<path d="M405.821 94.196C405.821 94.196 399.739 92.8267 398.985 99.8893C398.341 105.944 406.028 108.212 406.028 108.212C406.028 108.212 408.493 97.936 405.821 94.196Z" fill="#2F2A42"/>
<path d="M408.821 104.455C408.821 104.455 402.739 103.085 401.987 110.149C401.341 116.204 409.028 118.472 409.028 118.472C409.028 118.472 411.493 108.195 408.821 104.455" fill="#2F2A42"/>
<path d="M404.809 95.6213C404.809 95.6213 395.131 91.9013 398.44 81.2266C401.751 70.552 414.364 74.8013 414.364 74.8013C414.364 74.8013 414.829 67.3613 423.155 66.9786C431.479 66.5946 434.501 73.2413 434.501 73.2413C434.501 73.2413 440.132 67.648 446.983 69.3253C453.836 71.0013 456.157 79.3173 454.032 83.2506C454.032 83.2506 458.387 82.4773 461.696 87.548C465.007 92.6187 465.855 100.14 461.745 102.933C461.745 102.933 466.628 108.28 463.964 115.539C461.301 122.796 454.143 122.623 454.143 122.623C454.143 122.623 455.521 132.08 446.339 134.384C437.156 136.688 438.013 128.524 438.013 128.524C438.013 128.524 421.915 91.3986 404.809 95.6213" fill="#2F2A42"/>
<path d="M443.124 138.147L444.453 144.656C444.792 146.311 444.14 148.02 442.773 149.012C430.988 157.575 422.008 151.685 420.119 148.781C421.543 147.445 446.844 123.504 447.251 110.044C447.251 110.044 450.156 126.787 443.124 138.147" fill="#F39C72"/>
<path d="M405.481 113.684C404.988 115.613 404.823 117.599 404.987 119.56C405.123 121.255 405.503 122.935 406.124 124.54L410.251 135.219C411.787 139.191 415.681 141.745 419.935 141.559C424.811 141.345 431.324 140.233 436.972 136.473C447.625 129.379 447.669 113.087 447.669 113.087C447.669 113.087 446.792 96.5587 433.072 90.2987C419.353 84.0373 405.397 91.368 405.397 91.368L403.8 102.933C403.709 103.579 403.656 104.225 403.639 104.872C403.579 107.045 403.915 109.217 404.637 111.283L405.481 113.684" fill="#F39C72"/>
<path d="M416.651 101.479C416.651 101.479 424.365 93.9507 429.677 100.735L428.716 102.469C428.716 102.469 423.349 97.796 417.147 103.635L416.651 101.479Z" fill="#2F2A42"/>
<path d="M405.481 113.684C404.988 115.613 404.823 117.599 404.987 119.56C406.64 118.387 409.971 117.407 416.671 118.316C416.671 118.316 413.076 115.396 409.488 115.332C408.524 115.315 407.852 114.371 408.151 113.455L410.155 107.317C410.155 107.317 409.433 106.093 407.908 105.632C406.976 105.352 405.135 105.013 403.639 104.872C403.579 107.045 403.915 109.217 404.637 111.283L405.481 113.684" fill="#EC7857"/>
<path d="M403.977 103.024C406.58 103.195 408.669 103.939 408.669 103.939L408.909 105.939C407.055 105.311 405.417 105.1 403.992 105.149C403.288 105.173 402.708 104.645 402.744 104.017L402.745 103.995C402.776 103.417 403.329 102.981 403.977 103.024Z" fill="#2F2A42"/>
<path d="M408.547 123.247L426.871 121.512C426.871 121.512 424.768 131.403 415.023 131.149C407.38 130.951 408.547 123.247 408.547 123.247" fill="white"/>
<path d="M421.021 141.232C421.021 141.232 432.383 139.817 438.493 123.997C438.493 123.997 441.323 129.829 438 138.211C434.676 146.592 420.119 148.781 420.119 148.781L421.021 141.232Z" fill="#EC7857"/>
<path d="M442.953 110.407C442.953 110.407 446.405 103.827 451.443 106.784C456.48 109.743 453.671 124.763 446.361 121.947C439.051 119.132 442.953 110.407 442.953 110.407" fill="#F39C72"/>
<path d="M418.925 107.281C418.925 107.281 419.999 104.012 422.925 103.997C427.195 103.976 428.016 107.587 428.016 107.587C428.016 107.587 423.869 101.884 418.925 107.281Z" fill="#2F2A42"/>
<path d="M409.316 109.561C409.316 109.561 406.375 106.06 404.629 110.308C404.629 110.308 406.599 107.592 409.316 109.561Z" fill="#2F2A42"/>
<path d="M404.809 95.6213C404.809 95.6213 409.785 96.8734 413.98 93.9774C418.176 91.0827 417.159 88.5094 417.159 88.5094C417.159 88.5094 418.868 92.772 424.547 92.336C430.224 91.9014 431.008 90.3213 431.008 90.3213C431.008 90.3213 430.771 96.676 435.415 97.6467C440.056 98.616 442.865 94.8507 442.865 94.8507C442.865 94.8507 422.233 76.6787 415.139 81.528C408.045 86.376 401.94 88.9307 404.809 95.6213" fill="#2F2A42"/>
<path d="M440.424 95.7294C440.424 95.7294 437.619 101.175 442.377 104.321C442.377 104.321 442.224 109 440.679 112.856L444.307 112.803C444.307 112.803 446.971 108.153 446.711 104.167C446.452 100.183 446.423 94.1267 440.424 95.7294" fill="#2F2A42"/>
<path d="M536.359 87.7667C536.359 87.7667 535.536 89.8973 534.329 90.72C534.329 90.72 536.356 90.632 537.041 89.4707L536.359 87.7667Z" fill="#EC7857"/>
<path d="M355.119 398.745L355.188 398.695V398.699L355.119 398.745Z" fill="#87C72F"/>
<path d="M469.913 293.568C457.184 289.063 427.663 281.457 412.617 279.248C410.361 278.916 408.209 278.767 406.165 278.767C387.9 278.767 378.145 290.651 378.145 290.651C378.145 290.651 382.531 266.309 386.26 261.484C389.987 256.663 392.181 240.875 393.713 234.296C393.921 233.419 394.032 232.303 394.08 231.029C397.515 228.583 400.993 226.523 404.493 224.797C403.845 247.58 401.944 263.103 416.873 268.721C432.675 274.672 467.736 292.46 469.913 293.568M362.796 225.304L359.449 220.225L356.549 215.824V215.823L362.796 225.304M367.223 223.139L358.428 210.224C363.985 207.212 377.521 199.879 394.592 190.657C394.592 190.657 399.441 196.759 402.399 205.399C397.481 207.876 393.873 210.069 392.253 211.093C391.955 209.183 391.741 207.983 391.741 207.983C389.473 211.709 374.755 219.383 367.223 223.139Z" fill="#75A635"/>
<path d="M362.796 225.304L356.549 215.823L355.691 211.709C355.691 211.709 356.651 211.188 358.428 210.224L367.223 223.139C364.561 224.468 362.796 225.304 362.796 225.304" fill="#2F2A42"/>
<path d="M394.08 231.029C394.095 230.593 394.103 230.137 394.103 229.665C394.103 223.789 392.948 215.531 392.253 211.093C393.873 210.069 397.481 207.876 402.399 205.399C403.731 209.289 404.677 213.692 404.628 218.287C404.603 220.517 404.553 222.689 404.493 224.797C400.993 226.523 397.515 228.583 394.08 231.029" fill="#80BA30"/>
<path d="M479.987 227.352C479.987 227.352 479.927 226.944 479.823 226.199C479.872 226.22 479.923 226.243 479.972 226.264C479.977 226.629 479.98 226.995 479.987 227.352M479.987 204.811C479.143 204.307 478.229 203.784 477.249 203.253C476.373 192.695 475.973 181.509 477.48 176.185C480.021 167.211 496.797 156.011 504.309 151.373C504.297 154.793 504.139 158.312 503.779 161.824C495.101 166.223 484.323 175.396 481.701 184.737C480.659 188.453 480.175 196.131 479.987 204.811ZM507.817 154.12C507.865 152.667 507.905 151.011 507.924 149.215C507.925 149.215 507.925 149.213 507.925 149.213C507.907 151.009 507.865 152.667 507.817 154.12Z" fill="#75A635"/>
<path d="M503.779 161.824C504.139 158.312 504.297 154.793 504.309 151.373C506.408 150.077 507.785 149.293 507.924 149.215C507.905 151.011 507.865 152.667 507.817 154.12C507.697 157.723 507.529 160.072 507.523 160.173C507.523 160.175 507.523 160.175 507.523 160.176C506.344 160.608 505.087 161.16 503.779 161.824" fill="#2F2A42"/>
<path d="M479.972 226.264C479.923 226.243 479.872 226.22 479.823 226.199C479.372 222.968 478.091 213.4 477.249 203.253C478.229 203.784 479.143 204.307 479.987 204.811C479.915 208.128 479.885 211.589 479.885 215.033C479.885 218.876 479.92 222.696 479.972 226.264Z" fill="#80BA30"/>
<path d="M398.948 158.643C394.153 187.149 395.031 220.919 395.031 220.919C396.785 229.909 393.073 237.324 393.073 237.324C374.779 217.549 387.356 158.643 394.153 146.747C402.505 132.131 414.74 149.213 414.74 149.213L408.483 151.189C408.483 151.189 406.313 148.131 403.633 148.781C400.952 149.433 398.948 158.643 398.948 158.643" fill="#2F2A42"/>
<path d="M450.639 139.851C450.639 139.851 452.513 125.44 463.032 125.072C479.697 124.489 483.895 168.291 485.211 191.973C486.527 215.656 479.987 220.425 479.987 220.425L479.784 206.94C479.784 206.94 471.161 148.664 466.892 138.411C462.209 127.171 458.199 132.724 453.992 138.359L450.232 140.091" fill="#2F2A42"/>
<path d="M86.3667 124.891C59.4251 117.907 38.3651 92.4987 32.7745 86.3747C32.2855 85.8374 31.7417 84.9347 31.1645 83.7307L31.1609 83.7267C25.8156 72.6467 17.1849 36.2147 15.2625 27.9574C15.1312 27.3961 15.0339 26.9667 14.9703 26.6813C14.9063 26.42 14.876 26.2827 14.876 26.2827L30.2011 19.584C30.2011 19.584 31.45 34.2787 38.8323 46.1334C46.214 57.9894 53.0193 76.78 53.0193 76.78C67.4484 83.8814 82.8844 97.076 82.8844 97.076C90.9373 113.957 86.3667 124.891 86.3667 124.891" fill="#F39C72"/>
<path d="M86.3667 124.891C59.4251 117.907 38.3651 92.4987 32.7745 86.3747C32.2855 85.8374 31.7417 84.9347 31.1645 83.7307C31.4765 83.996 51.4016 101.088 58.8921 105.417C66.4412 109.78 74.988 113.656 79.186 110.712C83.3875 107.767 84.562 102.156 82.8844 97.076C90.9373 113.957 86.3667 124.891 86.3667 124.891" fill="#EC7857"/>
<path d="M15.8183 27.0574C18.7729 26.9587 29.0787 24.3027 30.3584 23.7187C30.8052 23.5147 30.9917 22.872 31.0427 22.1253C31.4437 21.6933 34.0527 18.828 34.6823 16.5827C35.0265 15.348 33.7516 14.3 32.2161 13.408C33.5 10.8227 33.7317 3.88137 30.5604 1.32137C27.1057 -1.46929 23.7885 1.97333 23.7885 1.97333C19.8297 -1.24001 17.3417 3.00536 17.3417 3.00536C15.4823 1.76802 12.1364 4.22137 12.1364 4.22137C10.424 3.32004 8.48067 5.12535 8.04373 6.79735C7.6068 8.47068 9.88853 22.512 11.1364 24.096C12.3849 25.6787 15.8183 27.0574 15.8183 27.0574" fill="#F39C72"/>
<path d="M25.7088 17.3427C27.2287 19.4974 28.8588 18.0654 28.8588 18.0654C28.3251 18.1854 27.512 17.4601 26.8719 16.7641C26.8719 16.7641 26.3937 16.3414 25.9609 15.6694L25.9584 15.6628C25.4875 14.9294 25.0765 13.8934 25.3959 12.7654C25.9745 10.7401 26.9839 10.448 26.9839 10.448L25.4708 4.19075C25.1145 6.46808 25.5984 10.3081 25.5984 10.3081C23.3093 12.8227 24.4109 15.404 25.1787 16.6227C24.7088 17.1014 24.012 17.4814 23.1303 17.0894C21.3688 16.308 20.7912 14.2187 20.7912 14.2187L18.7969 5.62141C18.7969 5.62141 19.3131 15.4987 21.2235 17.3161C23.7604 19.7267 25.7088 17.3427 25.7088 17.3427" fill="#EC7857"/>
<path d="M13.6875 8.2574C13.6875 8.2574 14.9751 15.5161 15.7557 16.9881C16.6084 18.5961 18.5864 18.8601 19.6312 18.1267C20.6755 17.3934 20.6453 16.4494 20.6453 16.4494L22.0073 17.5974C22.0073 17.5974 19.5005 21.7374 16.0531 18.7827C14.3297 17.3067 13.6875 8.2574 13.6875 8.2574" fill="#EC7857"/>
<path d="M15.4437 17.8787C15.4437 17.8787 15.5469 19.4774 14.3021 20.2574C13.0573 21.0374 12.1479 20.6507 11.6979 19.844C11.6979 19.844 11.7917 21.0307 13.1932 21.26C15.0188 21.5574 16.3104 19.572 16.638 18.88L15.4437 17.8787" fill="#EC7857"/>
<path d="M18.5677 27.0574C18.5677 27.0574 17.188 28.148 15.2625 27.9574C15.1312 27.396 15.0339 26.9667 14.9697 26.6813C14.9697 26.6813 16.5541 27.1614 18.5677 27.0574Z" fill="#EC7857"/>
<path d="M30.7213 23.3827C30.7213 23.3827 29.1136 24.9213 27.6875 25.34C27.6875 25.34 29.6073 25.4747 30.9251 24.536L30.7213 23.3827" fill="#EC7857"/>
<path d="M53.0193 76.78C53.0193 76.78 47.8745 81.0894 44.9661 81.5374C44.9661 81.5374 50.8443 83.4987 55.7912 78.2107L53.0193 76.78Z" fill="#EC7857"/>
<path d="M69.4579 207.084C70.0588 207.961 71.1697 208.455 72.336 208.729C73.2271 222.892 75.1084 234.9 77.9188 240.067C86.5787 255.975 143.007 257.032 154.756 243.161C166.501 229.288 163.417 148.085 143.845 137.731C129.232 129.999 100.927 132.076 87.5187 133.627C81.9084 134.276 77.236 138.273 75.8068 143.736C73.5172 152.488 72.2136 166.064 71.8459 180.391C71.0527 180.517 70.2167 180.747 69.4355 181.145C66.7912 182.501 67.8245 204.697 69.4579 207.084" fill="#2F2A42"/>
<path d="M281.116 128.233C281.116 128.233 276.807 144.213 269.985 161.941C268.955 164.619 267.868 167.34 266.727 170.052C262.085 181.095 256.593 191.987 250.671 199.403C247.509 203.356 244.231 206.319 240.892 207.792C240.892 207.792 231.329 209.135 224.617 205.108C217.907 201.08 191.733 188.108 188.545 182.515C188.545 182.515 198.612 168.243 208.175 166.961C208.175 166.961 211.728 168.796 216.763 171.723C222.177 174.863 229.308 179.265 235.587 183.997C236.191 184.449 236.785 184.907 237.368 185.367C237.368 185.367 237.863 184.407 238.751 182.736C241.016 178.487 245.855 169.641 251.717 160.296C252.969 158.297 254.271 156.271 255.603 154.263C255.899 153.817 256.197 153.371 256.496 152.928C266.897 137.492 268.24 126.211 268.24 126.211C268.24 126.211 278.264 125.372 281.116 128.233" fill="#F39C72"/>
<path d="M269.985 161.941C268.955 164.619 267.868 167.34 266.727 170.052L251.717 160.296C252.969 158.297 254.271 156.271 255.603 154.263L269.985 161.941" fill="#EC7857"/>
<path d="M250.671 199.403C247.509 203.356 244.231 206.319 240.892 207.792C240.892 207.792 231.329 209.135 224.617 205.108C217.907 201.08 191.733 188.108 188.545 182.515C188.545 182.515 198.612 168.243 208.175 166.961C208.175 166.961 211.728 168.796 216.763 171.723C216.179 173.729 213.859 180.94 209.695 184.429C204.829 188.504 216.071 197.899 225.803 202.093C235.533 206.288 242.315 206.107 250.671 199.403" fill="#EC7857"/>
<path d="M236.987 196.221C238.107 191.635 235.587 183.997 235.587 183.997C236.191 184.449 236.785 184.907 237.368 185.367C237.368 185.367 237.861 184.407 238.751 182.736C239.735 192.513 236.987 196.221 236.987 196.221Z" fill="#EC7857"/>
<path d="M192.277 433.872C183.327 428.729 180.196 423.584 174.828 414.636C171.64 409.32 168.687 404.873 166.815 402.14C165.519 400.247 165.368 397.797 166.425 395.76C166.505 395.603 166.589 395.444 166.676 395.28C168.78 391.301 172.273 385.696 175.287 385.552L178.696 387.408L190.488 393.831C190.488 393.831 195.632 405.652 195.407 410.813C195.216 415.32 203.917 425.759 206.551 431.632C206.773 432.128 206.951 432.591 207.079 433.017C207.168 433.323 207.232 433.608 207.265 433.872C207.896 438.832 201.225 439.021 192.277 433.872" fill="#A3A2C0"/>
<path d="M192.277 433.872C183.327 428.729 180.196 423.584 174.828 414.636C171.64 409.32 168.687 404.873 166.815 402.14C165.519 400.247 165.368 397.797 166.425 395.76C166.505 395.603 166.589 395.444 166.676 395.28C167.187 397.357 168.603 402.031 171.64 405.576C175.667 410.273 181.579 420.843 182.985 422.857C184.391 424.869 194.38 433.5 200.665 434.768C205.763 435.8 206.692 434.715 207.079 433.017C207.168 433.323 207.232 433.608 207.265 433.872C207.896 438.832 201.225 439.021 192.277 433.872" fill="#2F2A42"/>
<path d="M203.949 435.171C203.111 435.171 202.039 435.047 200.665 434.768C194.38 433.5 184.391 424.869 182.985 422.857C182.345 421.941 180.776 419.26 178.876 416.165C179.081 413.653 179.02 411.437 178.873 409.441C181.676 413.977 184.967 418.375 187.112 420.9C190.511 424.895 197.808 431.703 205.248 431.703C205.683 431.703 206.116 431.68 206.551 431.632C206.773 432.128 206.951 432.591 207.079 433.017C206.796 434.257 206.224 435.171 203.949 435.171" fill="#878BA8"/>
<path d="M203.288 437.663C200.583 437.663 196.709 436.423 192.277 433.872C185.157 429.781 181.72 425.688 177.909 419.68C178.42 418.709 178.748 417.623 178.855 416.423C178.861 416.337 178.869 416.251 178.876 416.165C180.776 419.26 182.345 421.941 182.985 422.857C184.391 424.869 194.38 433.5 200.665 434.768C202.039 435.047 203.111 435.171 203.949 435.171C206.224 435.171 206.796 434.257 207.079 433.017C207.168 433.323 207.232 433.608 207.265 433.872C207.293 434.088 207.307 434.293 207.307 434.491C207.309 436.587 205.805 437.663 203.288 437.663" fill="#2F2A42"/>
<path d="M189.032 464.335C188.827 470.271 184.605 475.731 175.287 474.14C164.788 472.352 161.852 463.627 159.391 458.257C156.932 452.889 151.113 434.323 148.653 426.94C147.321 422.94 147.715 418.537 148.355 415.347C148.895 412.648 149.611 410.813 149.611 410.813L153.395 411.387L174.828 414.636C174.828 414.636 178.855 423.136 179.751 432.755C180.515 440.987 186.028 451.671 188.165 458.788V458.795C188.528 459.996 188.789 461.093 188.92 462.06C189.021 462.815 189.061 463.58 189.032 464.335" fill="#A3A2C0"/>
<path d="M178.411 474.419C177.441 474.419 176.401 474.329 175.287 474.14C164.788 472.352 161.852 463.627 159.391 458.257C156.932 452.889 151.113 434.323 148.653 426.94C148.003 424.987 147.764 422.937 147.764 420.981C147.764 418.929 148.027 416.98 148.355 415.347C148.88 412.725 149.569 410.919 149.608 410.819C150.5 413.875 151.955 417.365 154.156 420.092C154.876 424.048 156.055 428.341 157.603 431.301C161.289 438.348 164.043 453.84 170.465 460.719C173.617 464.092 177.993 466.12 181.607 466.12C185.36 466.12 188.289 463.932 188.165 458.795C188.528 459.996 188.789 461.093 188.92 462.06C189 462.649 189.041 463.245 189.041 463.837C189.041 464.004 189.039 464.169 189.032 464.335C188.852 469.561 185.557 474.419 178.411 474.419" fill="#878BA8"/>
<path d="M189.032 464.335C188.827 470.271 184.605 475.731 175.287 474.139C164.788 472.352 161.852 463.627 159.391 458.257C156.932 452.889 151.113 434.323 148.653 426.94C147.321 422.94 147.715 418.537 148.355 415.347C148.895 418.632 151.708 429.227 155.012 437.663C160.379 451.363 164.664 463.403 168.401 467.428C172.139 471.45 186.888 474.133 189.032 464.335" fill="#2F2A42"/>
<path d="M79.2531 122.588L87.6586 125.236C87.6586 125.236 86.2373 131.176 83.8068 131.172C81.3771 131.167 78.5265 129.873 79.2531 122.588Z" fill="#31477D"/>
<path d="M174.828 313.044L209.725 323.809C209.725 323.809 197.749 340.356 190.583 350.788C192.388 343.993 193.904 339.736 192.277 335.668C190.488 331.191 174.828 313.044 174.828 313.044ZM252.441 309.816C252.016 308.209 251.193 306.74 250.104 305.484C246.493 301.324 235.823 290.307 214.423 277.503C187.132 261.175 181.985 262.516 168.341 252.449C168.341 252.449 121.675 247.201 102.515 265.724C102.316 265.915 102.121 266.109 101.931 266.304C100.192 268.084 98.7027 270.069 97.5213 272.292C97.5213 272.292 97.5213 296.499 107.085 305.331C116.648 314.161 146.64 345.415 149.549 345.128C149.549 345.128 149.772 349.983 153.352 350.208C153.352 350.208 148.429 370.116 150.441 378.62C150.441 378.62 147.311 385.777 148.879 390.92C150.441 396.069 148.429 401.212 148.429 404.344C148.429 407.477 151.113 421.347 159.837 424.255C168.563 427.161 178.183 424.031 178.855 416.423C179.525 408.82 177.737 403.897 178.408 399.645C178.589 398.495 179.381 395.112 180.477 390.643C183.7 392.656 188.776 394.173 190.488 393.831C192.723 393.384 197.42 380.184 200.331 379.291C203.239 378.395 213.528 365.643 220.909 358.485C227.987 351.624 257.664 329.575 252.441 309.816" fill="#2F2A42"/>
<path d="M103.528 267.764L102.205 267.985C102.081 267.248 101.988 266.673 101.931 266.304C102.121 266.109 102.316 265.915 102.515 265.724L103.179 265.624C103.179 265.627 103.303 266.419 103.528 267.764Z" fill="#52526B"/>
<path d="M152.969 411.769C152.677 413.119 152.345 414.548 151.979 416.019L153.281 416.344C153.651 414.859 153.989 413.413 154.281 412.051L152.969 411.769ZM154.204 404.528C154.067 405.787 153.852 407.229 153.56 408.813L154.881 409.055C155.177 407.437 155.399 405.965 155.536 404.672L154.204 404.528M155.7 400.84C155.664 400.156 155.647 399.448 155.647 398.676C155.647 398.191 155.653 397.703 155.667 397.209L154.325 397.176C154.311 397.68 154.305 398.18 154.305 398.676C154.305 399.471 154.321 400.203 154.359 400.915C154.372 401.125 154.375 401.348 154.379 401.576L155.72 401.569C155.717 401.316 155.711 401.076 155.7 400.84ZM154.724 389.753C154.68 390.541 154.631 391.324 154.583 392.095C154.54 392.777 154.496 393.455 154.459 394.127L155.797 394.199C155.835 393.531 155.879 392.86 155.921 392.18C155.969 391.405 156.02 390.62 156.063 389.827L154.724 389.753M156.18 382.352L154.841 382.405C154.868 383.145 154.885 383.919 154.885 384.703C154.885 385.36 154.875 386.029 154.855 386.74L156.197 386.777C156.217 386.052 156.227 385.375 156.227 384.703C156.227 383.901 156.211 383.109 156.18 382.352ZM156.248 375.063L154.916 374.899C154.731 376.399 154.64 377.663 154.64 378.767C154.64 378.975 154.643 379.177 154.651 379.375L155.992 379.328C155.985 379.145 155.983 378.959 155.983 378.767C155.983 377.717 156.069 376.505 156.248 375.063ZM156.184 367.536C155.841 369.228 155.583 370.603 155.368 371.864L156.691 372.089C156.901 370.841 157.16 369.479 157.5 367.801L156.184 367.536M157.697 360.268C157.472 361.375 157.231 362.516 156.985 363.675L156.801 364.556L158.113 364.832L158.301 363.952C158.547 362.792 158.788 361.643 159.012 360.536L157.697 360.268ZM158.868 353.029C158.784 354.137 158.589 355.536 158.271 357.303L159.593 357.54C159.919 355.728 160.12 354.285 160.207 353.131L158.868 353.029ZM159.261 345.681L157.928 345.836C158.08 347.14 158.271 348.761 158.713 350.257L159.999 349.879C159.589 348.489 159.408 346.932 159.261 345.681M156.127 338.632L155.583 339.86C156.563 340.292 157.137 341.197 157.5 342.896L158.815 342.617C158.505 341.175 157.919 339.423 156.127 338.632ZM150.432 334.189L149.553 335.201C150.895 336.369 152.032 337.329 152.932 338.053L153.775 337.007C152.888 336.296 151.764 335.347 150.432 334.189ZM144.899 329.248L143.996 330.243C145.14 331.283 146.235 332.268 147.264 333.185L148.157 332.181C147.131 331.269 146.04 330.285 144.899 329.248ZM139.429 324.225L138.516 325.208C139.613 326.229 140.697 327.225 141.748 328.189L142.655 327.197C141.604 326.239 140.527 325.243 139.429 324.225M134 319.155L133.08 320.135C134.155 321.141 135.225 322.144 136.288 323.139L137.204 322.155C136.144 321.165 135.071 320.161 134 319.155M128.604 314.055L127.677 315.028C128.728 316.025 129.796 317.033 130.869 318.051L131.788 317.075C130.719 316.061 129.651 315.051 128.604 314.055M123.235 308.924L122.303 309.891C123.325 310.873 124.387 311.891 125.476 312.931L126.403 311.961C125.316 310.92 124.255 309.904 123.235 308.924ZM117.9 303.756L116.96 304.716C117.929 305.663 118.987 306.689 120.112 307.78L121.048 306.813C119.92 305.727 118.865 304.703 117.9 303.756M112.645 298.515L111.675 299.441C112.329 300.129 113.376 301.187 114.785 302.581L115.728 301.629C114.329 300.244 113.292 299.196 112.645 298.515ZM109.353 292.227L108.091 292.687C108.679 294.304 109.273 295.687 109.86 296.797L111.044 296.169C110.491 295.116 109.92 293.787 109.353 292.227M107.199 285.191L105.9 285.535C106.303 287.056 106.712 288.485 107.115 289.777L108.396 289.377C107.997 288.103 107.595 286.696 107.199 285.191M105.491 278.003L104.179 278.284C104.501 279.773 104.829 281.22 105.155 282.576L106.46 282.26C106.135 280.915 105.809 279.481 105.491 278.003M104.052 270.741L102.732 270.981C102.997 272.435 103.273 273.888 103.557 275.301L104.873 275.039C104.591 273.633 104.316 272.188 104.052 270.741" fill="#52526B"/>
<path d="M169.552 303.863C169.552 303.863 171.129 304.391 173.713 305.259L174.143 303.988C171.556 303.119 169.979 302.588 169.979 302.588L169.552 303.863" fill="#52526B"/>
<path d="M181.156 306.357C179.672 305.855 178.277 305.384 177.012 304.955L176.585 306.227C177.847 306.652 179.24 307.125 180.727 307.629L181.156 306.357Z" fill="#52526B"/>
<path d="M189.568 359.868L190.667 360.643L193.183 357.071L192.085 356.296L189.568 359.868" fill="#52526B"/>
<path d="M185.307 365.916L186.404 366.688L188.92 363.117L187.824 362.341L185.307 365.916" fill="#52526B"/>
<path d="M182.984 369.208C183.027 369.952 183.048 370.695 183.056 371.44L184.66 369.164L183.561 368.388L182.984 369.208" fill="#52526B"/>
<path d="M188.167 308.74C186.751 308.256 185.361 307.787 184.025 307.331L183.592 308.601C184.928 309.055 186.317 309.528 187.729 310.012L188.167 308.74Z" fill="#52526B"/>
<path d="M209.135 316.055C207.849 315.591 206.468 315.095 205.015 314.583L204.568 315.847C206.017 316.36 207.396 316.853 208.679 317.316L209.135 316.055" fill="#52526B"/>
<path d="M195.165 311.145C193.787 310.669 192.4 310.193 191.028 309.723L190.595 310.991C191.964 311.461 193.347 311.937 194.725 312.415L195.165 311.145Z" fill="#52526B"/>
<path d="M207.491 336.272L208.484 337.175C209.373 336.195 210.411 335.057 211.411 333.919L210.407 333.033C209.411 334.161 208.376 335.296 207.491 336.272" fill="#52526B"/>
<path d="M212.369 330.755L213.4 331.621C214.495 330.316 215.387 329.183 216.128 328.144L215.037 327.363C214.316 328.369 213.444 329.48 212.369 330.755" fill="#52526B"/>
<path d="M216.095 318.676C215.115 318.276 213.732 317.743 211.987 317.095L211.521 318.357C213.252 318.997 214.621 319.521 215.588 319.92L216.095 318.676" fill="#52526B"/>
<path d="M218.785 320.851L217.521 321.296C217.584 321.48 217.617 321.695 217.617 321.927C217.617 322.685 217.283 323.679 216.624 324.889L217.803 325.531C218.581 324.104 218.96 322.923 218.96 321.927C218.96 321.541 218.903 321.179 218.785 320.851Z" fill="#52526B"/>
<path d="M193.831 353.821L194.927 354.596L197.444 351.024L196.347 350.249L193.831 353.821" fill="#52526B"/>
<path d="M202.552 341.803L203.572 342.671C204.327 341.783 205.216 340.775 206.451 339.411L205.453 338.511C204.209 339.885 203.313 340.903 202.552 341.803Z" fill="#52526B"/>
<path d="M200.229 344.743L198.092 347.775L199.189 348.547L201.327 345.517C201.447 345.345 201.572 345.171 201.705 344.993L200.628 344.192C200.488 344.379 200.357 344.56 200.229 344.743Z" fill="#52526B"/>
<path d="M197.584 313.404C198.988 313.891 200.371 314.369 201.712 314.844L202.156 313.575C200.813 313.105 199.431 312.623 198.028 312.136L197.584 313.404" fill="#52526B"/>
<path d="M214.568 172.209C213.004 179.209 206.357 185.591 201.076 189.699H201.072C197.291 192.641 194.211 194.416 194.211 194.416L191.076 191.715L181.348 183.343C181.348 183.343 181.348 183.343 176.675 192.987C172.003 202.631 173.295 227.301 172.755 234.321C172.281 240.448 181.728 254.8 183.627 259.703C183.905 260.421 184.023 260.935 183.923 261.192C183.137 263.207 159.788 266.225 144.604 261.192C136.168 258.395 122.923 262.832 112.647 267.268C104.432 270.815 98.1132 274.361 97.6666 274.213C96.6599 273.877 95.7812 228.979 91.0826 209.016C86.3852 189.057 94.2132 136.7 94.2132 136.7L87.8919 134.693L85.0422 133.791C76.7646 134.24 79.3983 124.509 79.3983 124.509C79.3983 124.509 79.6739 134.351 84.7072 131.788C86.9586 130.64 86.8612 123.956 86.0626 116.919C85.0859 108.295 83.063 99.1413 83.0327 99C83.1302 99.0267 84.6468 99.4333 87.0332 100.108C94.9919 102.349 112.609 107.571 119.269 111.536C121.269 112.728 126.101 116.195 129.84 118.921C132.599 120.929 134.759 122.54 134.759 122.54C147.933 129.797 152.155 129.317 162.893 132.505C163.363 132.647 163.839 132.788 164.315 132.925C177.363 136.801 192.287 141.404 197.828 150.733C202.109 157.948 209.317 166.347 212.703 170.148C213.857 171.448 214.568 172.209 214.568 172.209" fill="#3276AD"/>
<path d="M87.7467 132.772L84.8969 131.869C76.6193 132.319 79.2531 122.588 79.2531 122.588C79.2531 122.588 79.5287 132.429 84.562 129.867C86.8133 128.719 86.716 122.035 85.9173 114.997C84.9407 106.373 82.9177 97.22 82.8875 97.0787C82.9849 97.1054 84.5016 97.512 86.888 98.1867C88.8773 106.223 92.448 124.011 87.7467 132.772Z" fill="#2F2A42"/>
<path d="M214.423 170.288C212.859 177.288 206.212 183.669 200.931 187.777H200.927C197.145 190.72 194.065 192.495 194.065 192.495L190.931 189.793C201.575 182.592 209.111 173.536 212.037 167.64C213.192 168.94 214.423 170.288 214.423 170.288Z" fill="#2F2A42"/>
<path d="M161.633 130.288C159.532 135.883 156.341 140.929 139.929 136.96C121.448 132.491 131.553 118.359 131.553 118.359C134.311 120.365 134.613 120.619 134.613 120.619C147.788 127.876 148.139 126.32 158.877 129.508C159.347 129.648 161.157 130.151 161.633 130.288" fill="#2F2A42"/>
<path d="M172.609 232.4C173.149 225.38 171.857 200.709 176.529 191.065C181.203 181.421 181.203 181.421 181.203 181.421L190.931 189.793L194.065 192.495C194.065 192.495 195.629 191.593 197.897 190.009C195.629 191.593 194.065 192.495 194.065 192.495L181.203 181.421C181.203 181.421 181.203 181.421 176.529 191.065C171.857 200.709 173.149 225.38 172.609 232.4Z" fill="#B3B9B4"/>
<path d="M172.609 232.4C163.391 210.477 179.525 170.313 179.525 170.313C182.721 176.524 191.477 182.339 196.748 185.443C194.933 186.937 192.989 188.401 190.931 189.793L181.203 181.421C181.203 181.421 181.203 181.421 176.529 191.065C171.857 200.709 173.149 225.38 172.609 232.4" fill="#32689A"/>
<path d="M194.065 192.495L190.931 189.793C192.989 188.401 194.933 186.937 196.748 185.443C199.159 186.861 200.84 187.713 200.927 187.777C199.84 188.623 198.812 189.372 197.897 190.009C195.629 191.593 194.065 192.495 194.065 192.495" fill="#2F2A42"/>
<path d="M89.68 133.387L84.8969 131.869C84.7104 131.88 84.5292 131.885 84.3536 131.885C79.7636 131.885 78.8531 128.509 78.8547 125.827C78.8531 128.509 79.7636 131.885 84.3536 131.885C84.5292 131.885 84.7104 131.88 84.8969 131.869L87.7467 132.772L89.6813 133.387H89.68Z" fill="#C5CAC1"/>
<path d="M94.068 134.779L89.68 133.387H89.6813L94.068 134.779Z" fill="#2F2A42"/>
<path d="M97.556 272.296C97.5427 272.296 97.5307 272.295 97.5213 272.292C96.5147 271.956 95.636 227.057 90.9373 207.095C89.852 202.485 89.436 196.148 89.436 189.125C89.4387 165.744 94.068 134.779 94.068 134.779L89.6813 133.387L87.7467 132.772C89.7853 128.973 90.268 123.475 90 117.812C95.3547 121.399 104.804 127.355 111.071 129.189C111.071 129.189 108.497 145.636 106.037 167.051C103.575 188.469 105.145 203.195 110.064 218.18C114.987 233.169 125.976 247.527 141.228 249.093C154.329 250.437 167.135 258.499 178.185 258.499C180.001 258.499 181.767 258.281 183.481 257.781C183.692 258.325 183.811 258.752 183.812 259.039C183.813 259.131 183.801 259.208 183.777 259.271C183.309 260.471 174.843 262.025 164.864 262.025C158.083 262.025 150.603 261.308 144.459 259.271C142.631 258.664 140.573 258.397 138.372 258.397C130.417 258.397 120.549 261.872 112.501 265.347C104.453 268.821 98.2267 272.296 97.556 272.296" fill="#32689A"/>
<path d="M87.7467 132.772L84.8969 131.869C84.7104 131.88 84.5292 131.885 84.3536 131.885C79.7636 131.885 78.8531 128.509 78.8547 125.827C78.8557 124.056 79.2531 122.588 79.2531 122.588C79.2536 122.603 79.4724 130.292 83.0047 130.292C83.4651 130.292 83.9817 130.161 84.562 129.867C85.9347 129.167 86.4333 126.412 86.4347 122.773C86.4347 120.441 86.2293 117.747 85.9173 114.997C85.9173 114.997 87.5187 116.151 90 117.812C90.268 123.475 89.7853 128.973 87.7467 132.772Z" fill="#2F2A42"/>
<path d="M187.984 79.9747L187.981 79.9734C187.601 80.3494 187.349 80.5441 187.349 80.5441L137.132 98.12C137.132 98.12 129.627 94.6654 130.067 81.5481C130.381 72.0867 136.485 67.7507 139.863 66.068C139.452 65.656 139.077 65.2121 138.771 64.8121C138.315 64.2214 138.727 63.3667 139.472 63.3507C140.096 63.336 140.645 63.3654 141.132 63.432C140.984 62.8054 140.904 62.1707 140.859 61.6187C140.799 60.8747 141.608 60.3854 142.245 60.7734C143.265 61.4 143.968 62.0267 144.441 62.6161L144.507 62.5494C149.376 57.6387 155.901 54.724 162.805 54.3294C166.58 54.1147 171.181 53.7814 175.757 53.2761C184.549 52.3027 191.391 53.8854 193.953 51.2467C193.953 51.2467 204.781 69.2747 187.984 79.9747" fill="#2F2A42"/>
<path d="M187.009 76.7814C187.009 76.7814 192.145 88.804 183.637 95.9667C183.637 95.9667 182.38 81.5707 187.009 76.7814Z" fill="#2F2A42"/>
<path d="M157.157 132.468L156.899 132.679C155.863 133.495 154.308 134.4 152 135.131C147.64 136.512 138.011 132.256 133.824 130.231C132.703 129.689 132.18 128.383 132.619 127.217C134.959 121.005 136.076 114.397 136.068 107.732C136.057 97.552 140.171 88.1973 140.171 88.1973C139.133 93.004 140.949 99.9413 143.744 106.919C148.349 118.421 155.613 130.045 157.157 132.468" fill="#F39C72"/>
<path d="M180.319 101.932C180.333 103.948 180.015 105.937 179.376 107.824C178.831 109.456 178.049 111.015 177.049 112.441L170.397 121.928C167.923 125.456 163.475 127.019 159.341 125.801C154.604 124.405 148.475 121.731 143.843 116.664C135.1 107.103 139.019 91.0867 139.019 91.0867C139.019 91.0867 143.9 75.0627 158.9 72.2494C173.9 69.4347 185.828 80.0294 185.828 80.0294L184.584 91.7787C184.516 92.4347 184.412 93.084 184.271 93.7227C183.804 95.8733 182.945 97.9254 181.732 99.7787L180.319 101.932" fill="#F39C72"/>
<path d="M172.313 87.224C172.313 87.224 166.565 77.9534 159.697 83.3267L160.22 85.2654C160.22 85.2654 166.628 81.9787 171.301 89.2227L172.313 87.224Z" fill="#2F2A42"/>
<path d="M180.319 101.932C180.333 103.948 180.015 105.937 179.376 107.824C178.037 106.269 175.004 104.497 168.2 103.761C168.2 103.761 172.443 101.768 175.983 102.576C176.933 102.793 177.823 102.029 177.752 101.056L177.276 94.5414C177.276 94.5414 178.281 93.5133 179.892 93.432C180.876 93.3827 182.769 93.4973 184.271 93.7227C183.804 95.8733 182.945 97.9254 181.732 99.7787L180.319 101.932Z" fill="#EC7857"/>
<path d="M184.388 91.8254C181.791 91.3614 179.556 91.5827 179.556 91.5827L178.835 93.4894C180.809 93.324 182.468 93.5134 183.857 93.9094C184.544 94.1054 185.241 93.7254 185.36 93.1L185.364 93.0774C185.472 92.5027 185.035 91.9414 184.388 91.8254Z" fill="#2F2A42"/>
<path d="M174.981 110.58L157.403 104.421C157.403 104.421 157.064 114.649 166.699 116.771C174.255 118.433 174.981 110.58 174.981 110.58Z" fill="white"/>
<path d="M158.353 125.216L157.547 132.119C157.427 132.231 157.299 132.348 157.157 132.468L156.899 132.679C154.311 131.493 143.488 126.075 142.411 118.119C141.725 113.085 142.723 109.292 143.744 106.919C144.553 105.029 145.38 104.037 145.38 104.037C147.536 121.065 158.353 125.216 158.353 125.216" fill="#EC7857"/>
<path d="M144.304 89.6014C144.304 89.6014 142.512 82.2961 136.844 83.9774C131.176 85.6601 130.284 101.097 138.149 100.109C146.016 99.1201 144.304 89.6014 144.304 89.6014Z" fill="#F39C72"/>
<path d="M161.251 71.9134C161.251 71.9134 157.937 72.256 157.537 76.448C157.137 80.64 156.423 87.772 151.028 87.6213C145.635 87.472 145.109 94.024 145.109 94.024L141.249 93.0907C141.249 93.0907 140.868 81.4427 143.437 77.4734C146.007 73.5054 156.829 67.7787 161.251 71.9134" fill="#2F2A42"/>
<path d="M160.636 90.3293C160.636 90.3293 162.483 87.9693 166.18 89.052C169.877 90.136 169.673 94.0774 169.673 94.0774C169.673 94.0774 167.603 88.9107 160.636 90.3293Z" fill="#2F2A42"/>
<path d="M178.049 96.8334C178.049 96.8334 179.364 96.0267 180.891 96.6187C182.417 97.2107 181.861 99.2014 181.861 99.2014C181.861 99.2014 181.508 96.6387 178.049 96.8334" fill="#2F2A42"/>
<path d="M281.187 174.243L219.536 135.284L245.332 94.4627L306.981 133.42L281.187 174.243" fill="#2F2A42"/>
<path d="M306.983 133.419L281.187 174.243L219.536 135.285L222.204 135.097L305.885 129.189L306.625 132.039L306.624 132.041L306.983 133.419Z" fill="#2F2A42"/>
<path d="M306.625 132.039L281.956 171.193C281.109 170.657 281.483 170.893 280.088 170.012L263.196 130.988L305.885 129.189L306.625 132.039Z" fill="white"/>
<path d="M280.088 170.012L221.132 132.757L246.928 91.936L305.884 129.191L280.088 170.012Z" fill="#2F2A42"/>
<path d="M286.715 112.924L286.707 112.913C286.127 111.845 284.852 110.933 283.971 110.805C283.963 109.885 283.071 109.021 281.964 108.543C281.32 108.264 280.597 108.247 279.92 108.431C279.607 107.305 278.407 106.425 277.6 106.676C277.6 106.676 277.408 106.713 277.08 106.789C276.992 105.983 276.507 105.473 276.507 105.473H276.501C275.977 104.268 273.967 103.268 273.06 103.548C273.06 103.548 265.384 104.924 263.568 110.241C261.751 115.557 259.421 121.701 262.14 121.324C262.919 121.217 263.821 120.461 264.709 119.367C263.751 122.587 263.397 125.068 265.156 124.824C266.133 124.689 267.307 123.533 268.4 121.963C267.661 124.709 267.533 126.696 269.115 126.477C270.543 126.279 272.388 123.908 273.791 121.245C272.884 124.355 272.587 126.716 274.305 126.477C276.409 126.185 277.887 121.908 279.999 118.641C282.476 114.815 282.389 117.069 285.065 116.039L287.019 117.272C287.968 114.935 286.82 113.088 286.715 112.924" fill="#F39C72"/>
<path d="M131.553 118.359C131.553 118.359 133.681 100.643 126.339 99.2013C112.077 96.4013 96.2413 117.519 87.6587 139.476C74.7396 172.529 89.6653 197.345 89.6653 197.345L89.9293 184.688C89.9293 184.688 88.756 157.164 101.508 135.401C114.259 113.639 123.151 107.767 124.997 109.277C126.843 110.787 126.933 114.997 126.933 114.997L131.553 118.359" fill="#2F2A42"/>
<path d="M164.169 131.004C164.169 131.004 168.435 119.975 182.108 124.889C194.067 129.189 192.832 141.937 190.985 158.716C189.14 175.493 172.889 216.989 172.889 216.989C172.889 216.989 172.199 202.371 174.044 193.647C174.044 193.647 185.229 156.757 181.203 142.161C177.176 127.564 168.2 132.215 168.2 132.215L164.169 131.004Z" fill="#2F2A42"/>
</svg>
